<?xml version="1.0" encoding="UTF-8"?><svg id="a" xmlns="http://www.w3.org/2000/svg" viewBox="0 0 35 23"><defs><style>.b{fill:none;stroke:#003063;stroke-width:.5px;}.c{fill:#003063;stroke-width:0px;}</style></defs><polyline class="b" points="13.31 11.18 10.22 14.53 7.25 11.31"/><line class="b" x1="10.22" y1="14.53" x2="10.22" y2="8.47"/><path class="c" d="M22.01,12.73v1.67h-.56v-4.27h1.57c.47,0,.83.12,1.1.36.26.24.4.55.4.95,0,.41-.13.73-.39.96-.26.22-.63.33-1.11.33h-1ZM22.01,12.27h1.01c.3,0,.53-.07.69-.21.16-.14.24-.35.24-.62s-.08-.46-.24-.61c-.16-.15-.38-.23-.66-.24h-1.04v1.68Z"/><path class="c" d="M25.23,14.4v-4.27h1.2c.37,0,.7.08.98.25.29.16.51.4.66.7.16.3.23.65.24,1.04v.27c0,.4-.08.76-.23,1.06-.16.3-.38.54-.67.7-.29.16-.62.24-1.01.25h-1.18ZM25.79,10.6v3.35h.59c.43,0,.77-.13,1.01-.4.24-.27.36-.65.36-1.15v-.25c0-.48-.11-.86-.34-1.13-.23-.27-.55-.4-.97-.41h-.66Z"/><path class="c" d="M31.52,12.52h-1.79v1.88h-.56v-4.27h2.64v.46h-2.08v1.46h1.79v.46Z"/><path class="b" d="M17.37,11.5c0,3.91-3.17,7.09-7.09,7.09s-7.09-3.17-7.09-7.09,3.17-7.09,7.09-7.09,7.09,3.17,7.09,7.09Z"/></svg>