<?xml version="1.0" encoding="UTF-8"?><svg id="a" xmlns="http://www.w3.org/2000/svg" viewBox="0 0 35 23"><defs><style>.b{fill:none;stroke:#003063;stroke-width:.5px;}.c{fill:#003063;stroke-width:0px;}</style></defs><polyline class="b" points="13.14 11.18 10.05 14.53 7.08 11.31"/><line class="b" x1="10.05" y1="14.53" x2="10.05" y2="8.47"/><path class="c" d="M24.41,13.05c-.05.45-.22.8-.5,1.04-.28.25-.65.37-1.12.37-.5,0-.91-.18-1.21-.54-.3-.36-.46-.85-.46-1.45v-.41c0-.4.07-.74.21-1.04s.34-.53.6-.69c.26-.16.56-.24.9-.24.45,0,.82.13,1.09.38.27.25.43.6.48,1.05h-.57c-.05-.34-.16-.59-.32-.74-.16-.15-.39-.23-.68-.23-.36,0-.64.13-.84.4-.2.27-.31.64-.31,1.13v.41c0,.46.1.83.29,1.11.19.27.46.41.81.41.31,0,.55-.07.72-.21.17-.14.28-.39.33-.74h.57Z"/><path class="c" d="M26.43,12.5c-.48-.14-.83-.31-1.05-.51-.22-.2-.33-.45-.33-.75,0-.34.13-.61.4-.83.27-.22.62-.33,1.05-.33.29,0,.55.06.78.17.23.11.41.27.53.47.13.2.19.42.19.65h-.57c0-.26-.08-.46-.25-.61-.16-.15-.4-.22-.69-.22-.28,0-.49.06-.65.18-.16.12-.23.29-.23.51,0,.17.07.32.22.44.15.12.4.23.75.33.36.1.63.21.83.33.2.12.35.26.45.42.1.16.15.35.15.56,0,.35-.13.62-.4.83-.27.21-.63.31-1.08.31-.29,0-.57-.05-.82-.17-.25-.11-.45-.27-.59-.46-.14-.2-.21-.42-.21-.67h.57c0,.26.1.46.29.61.19.15.45.22.76.22.3,0,.52-.06.68-.18.16-.12.24-.29.24-.5s-.07-.37-.22-.48c-.15-.11-.41-.23-.8-.34Z"/><path class="c" d="M30.15,13.66l1.22-3.52h.62l-1.58,4.27h-.5l-1.58-4.27h.61l1.21,3.52Z"/><path class="b" d="M17.2,11.5c0,3.91-3.17,7.09-7.09,7.09s-7.09-3.17-7.09-7.09,3.17-7.09,7.09-7.09,7.09,3.17,7.09,7.09Z"/></svg>