<?xml version="1.0" encoding="UTF-8"?><svg id="a" xmlns="http://www.w3.org/2000/svg" xmlns:xlink="http://www.w3.org/1999/xlink" viewBox="0 0 20 23"><defs><style>.c{fill:red;}.c,.d,.e{stroke-width:0px;}.f{stroke:#878787;stroke-width:.25px;}.f,.d{fill:none;}.g{clip-path:url(#b);}.e{fill:#878787;}</style><clipPath id="b"><path class="d" d="M14.78,8.64c0,2.88-2.34,5.22-5.22,5.22s-5.22-2.34-5.22-5.22,2.34-5.22,5.22-5.22,5.22,2.34,5.22,5.22Z"/></clipPath></defs><g class="g"><rect class="c" x="1.34" y="8.64" width="17.31" height="5.41"/></g><path class="f" d="M14.78,8.64c0,2.88-2.34,5.22-5.22,5.22s-5.22-2.34-5.22-5.22,2.34-5.22,5.22-5.22,5.22,2.34,5.22,5.22Z"/><path class="e" d="M8.42,18.22v1.36h-.46v-3.48h1.28c.38,0,.68.1.89.29.21.2.32.45.32.77,0,.34-.11.6-.32.78-.21.18-.51.27-.91.27h-.82ZM8.42,17.85h.82c.25,0,.43-.06.56-.17.13-.12.2-.28.2-.5,0-.21-.07-.37-.2-.5-.13-.12-.31-.19-.54-.19h-.85v1.37Z"/><path class="e" d="M11.51,19.21h1.65v.37h-2.11v-3.48h.46v3.1Z"/></svg>