<?xml version="1.0" encoding="UTF-8"?><svg id="a" xmlns="http://www.w3.org/2000/svg" xmlns:xlink="http://www.w3.org/1999/xlink" viewBox="0 0 20 23"><defs><style>.c{fill:#fefefe;}.c,.d,.e{stroke-width:0px;}.f{stroke:#878787;stroke-width:.25px;}.f,.d{fill:none;}.g{clip-path:url(#b);}.e{fill:#878787;}</style><clipPath id="b"><path class="d" d="M15.33,8.71c0,2.88-2.34,5.22-5.22,5.22s-5.22-2.34-5.22-5.22,2.34-5.22,5.22-5.22,5.22,2.34,5.22,5.22Z"/></clipPath></defs><g class="g"><path class="c" d="M3.01,14.16h13.99c.45-.03.81-.4.81-.86V4.15c0-.47-.38-.85-.85-.86H3.05c-.47,0-.85.39-.85.86v9.14c0,.46.36.83.81.86h0Z"/><polygon class="e" points="8.91 9.81 8.91 14.16 11.08 14.16 11.08 9.81 17.81 9.81 17.81 7.64 11.08 7.64 11.08 3.3 8.91 3.3 8.91 7.64 2.19 7.64 2.19 9.81 8.91 9.81"/><path class="e" d="M11.8,6.81v-3.51h5.16c.36,0,.66.23.79.54l-5.94,2.97h0Z"/><path class="e" d="M11.8,10.64v3.52h5.19c.34-.02.63-.24.75-.54l-5.94-2.97h0Z"/><path class="e" d="M8.18,10.64v3.52H3.01c-.34-.02-.63-.24-.75-.55l5.93-2.97h0Z"/><path class="e" d="M8.18,6.81v-3.51H3.04c-.36,0-.66.23-.79.55l5.93,2.97h0Z"/><polygon class="e" points="2.19 6.92 4.36 6.92 2.19 5.83 2.19 6.92"/><polygon class="e" points="17.81 6.92 15.63 6.92 17.81 5.83 17.81 6.92"/><polygon class="e" points="17.81 10.54 15.63 10.54 17.81 11.63 17.81 10.54"/><polygon class="e" points="2.19 10.54 4.36 10.54 2.19 11.62 2.19 10.54"/><polygon class="e" points="17.81 4.22 12.42 6.92 13.62 6.92 17.81 4.82 17.81 4.22"/><polygon class="e" points="7.57 10.54 6.37 10.54 2.19 12.62 2.19 13.23 7.58 10.54 7.57 10.54"/><polygon class="e" points="5.17 6.92 6.37 6.92 2.19 4.83 2.19 5.43 5.17 6.92"/><polygon class="e" points="14.82 10.53 13.61 10.53 17.81 12.63 17.81 12.03 14.82 10.53"/></g><path class="f" d="M15.33,8.71c0,2.88-2.34,5.22-5.22,5.22s-5.22-2.34-5.22-5.22,2.34-5.22,5.22-5.22,5.22,2.34,5.22,5.22Z"/><path class="e" d="M8.26,18.05h-1.51v1.23h1.75v.37h-2.21v-3.48h2.19v.38h-1.73v1.12h1.51v.37Z"/><path class="e" d="M11.74,19.65h-.46l-1.75-2.68v2.68h-.46v-3.48h.46l1.76,2.69v-2.69h.46v3.48Z"/><path class="e" d="M15.12,19.2c-.12.17-.28.29-.49.38-.21.08-.46.13-.74.13s-.53-.07-.75-.2c-.22-.13-.39-.32-.51-.57-.12-.24-.18-.53-.19-.85v-.3c0-.53.12-.93.37-1.22.24-.29.59-.43,1.03-.43.36,0,.65.09.87.28.22.19.36.45.41.79h-.46c-.09-.46-.36-.69-.82-.69-.31,0-.54.11-.7.32-.16.21-.24.53-.24.94v.28c0,.39.09.7.27.93.18.23.42.35.72.35.17,0,.32-.02.45-.06.13-.04.23-.1.32-.19v-.78h-.8v-.37h1.26v1.28Z"/></svg>