<?xml version="1.0" encoding="UTF-8"?><svg id="a" xmlns="http://www.w3.org/2000/svg" viewBox="0 0 60 23"><defs><style>.b{fill:none;stroke:#878787;stroke-width:.5px;}.c{fill:#878787;stroke-width:0px;}</style></defs><polyline class="b" points="12.58 11.18 9.49 14.53 6.52 11.31"/><line class="b" x1="9.49" y1="14.53" x2="9.49" y2="8.47"/><path class="c" d="M24.85,13.05c-.05.45-.22.8-.5,1.04-.28.25-.65.37-1.12.37-.5,0-.91-.18-1.21-.54-.3-.36-.46-.85-.46-1.45v-.41c0-.4.07-.74.21-1.04s.34-.53.6-.69c.26-.16.56-.24.9-.24.45,0,.82.13,1.09.38.27.25.43.6.48,1.05h-.57c-.05-.34-.16-.59-.32-.74-.16-.15-.39-.23-.68-.23-.36,0-.64.13-.84.4-.21.27-.31.64-.31,1.13v.41c0,.46.1.83.29,1.11.19.27.46.41.81.41.31,0,.55-.07.72-.21.17-.14.28-.39.33-.74h.57Z"/><path class="c" d="M26.87,12.5c-.48-.14-.83-.31-1.05-.51-.22-.2-.33-.45-.33-.75,0-.34.13-.61.4-.83.27-.22.62-.33,1.05-.33.29,0,.55.06.78.17.23.11.41.27.53.47.13.2.19.42.19.65h-.57c0-.26-.08-.46-.25-.61-.16-.15-.4-.22-.69-.22-.28,0-.49.06-.65.18-.16.12-.23.29-.23.51,0,.17.07.32.22.44.15.12.4.23.75.33.36.1.63.21.83.33.2.12.35.26.45.42.1.16.15.35.15.56,0,.35-.13.62-.4.83-.27.21-.63.31-1.08.31-.29,0-.57-.05-.82-.17-.25-.11-.45-.27-.59-.46-.14-.2-.21-.42-.21-.67h.57c0,.26.1.46.29.61.19.15.45.22.76.22.3,0,.52-.06.68-.18s.24-.29.24-.5-.07-.37-.22-.48c-.15-.11-.41-.23-.8-.34Z"/><path class="c" d="M30.59,13.66l1.22-3.52h.62l-1.58,4.27h-.5l-1.58-4.27h.61l1.21,3.52Z"/><path class="c" d="M32.23,15.25l-.31-.21c.18-.26.28-.52.29-.79v-.49h.53v.42c0,.2-.05.39-.14.59-.1.2-.22.36-.37.47Z"/><path class="c" d="M35.72,10.14l1.39,3.48,1.39-3.48h.73v4.27h-.56v-1.66l.05-1.79-1.4,3.45h-.43l-1.4-3.45.06,1.79v1.66h-.56v-4.27h.73Z"/><path class="c" d="M40.84,14.4h-.56v-4.27h.56v4.27Z"/><path class="c" d="M44.28,12.43h-1.85v1.51h2.15v.46h-2.71v-4.27h2.68v.46h-2.12v1.37h1.85v.46Z"/><path class="c" d="M46.53,12.5c-.48-.14-.83-.31-1.05-.51-.22-.2-.33-.45-.33-.75,0-.34.13-.61.4-.83.27-.22.62-.33,1.05-.33.29,0,.55.06.78.17.23.11.41.27.53.47.12.2.19.42.19.65h-.57c0-.26-.08-.46-.25-.61-.16-.15-.4-.22-.69-.22-.28,0-.49.06-.65.18-.15.12-.23.29-.23.51,0,.17.07.32.22.44.15.12.4.23.75.33.35.1.63.21.83.33.2.12.35.26.45.42.1.16.14.35.14.56,0,.35-.13.62-.4.83-.27.21-.63.31-1.08.31-.29,0-.57-.05-.82-.17-.25-.11-.45-.27-.59-.46-.14-.2-.21-.42-.21-.67h.57c0,.26.09.46.29.61.19.15.44.22.76.22.3,0,.52-.06.68-.18.16-.12.24-.29.24-.5s-.07-.37-.22-.48c-.15-.11-.41-.23-.8-.34Z"/><path class="c" d="M49.44,14.4h-.56v-4.27h.56v4.27Z"/><path class="c" d="M52.23,10.14l1.63,4.27h-.11l-.17.13c-.22.18-.33.35-.33.52,0,.14.08.21.23.21.09,0,.19-.03.29-.08l.04.35c-.14.09-.29.13-.47.13s-.31-.05-.41-.15c-.1-.1-.15-.24-.15-.4,0-.28.16-.53.5-.74l-.4-1.09h-1.79l-.4,1.12h-.58l1.63-4.27h.49ZM51.26,12.83h1.45l-.73-1.99-.72,1.99Z"/><path class="c" d="M57.54,13.05c-.05.45-.22.8-.5,1.04-.28.25-.65.37-1.12.37-.5,0-.91-.18-1.21-.54-.3-.36-.45-.85-.45-1.45v-.41c0-.4.07-.74.21-1.04.14-.3.34-.53.6-.69.26-.16.56-.24.9-.24.45,0,.82.13,1.09.38.27.25.43.6.48,1.05h-.57c-.05-.34-.16-.59-.32-.74-.16-.15-.39-.23-.68-.23-.36,0-.64.13-.85.4-.2.27-.31.64-.31,1.13v.41c0,.46.1.83.29,1.11.19.27.46.41.81.41.31,0,.55-.07.72-.21.17-.14.28-.39.33-.74h.57Z"/><path class="b" d="M16.64,11.5c0,3.91-3.17,7.09-7.09,7.09s-7.09-3.17-7.09-7.09,3.17-7.09,7.09-7.09,7.09,3.17,7.09,7.09Z"/></svg>