<?xml version="1.0" encoding="UTF-8"?><svg id="a" xmlns="http://www.w3.org/2000/svg" viewBox="0 0 35 23"><defs><style>.b{fill:none;stroke:#878787;stroke-width:.5px;}.c{fill:#878787;stroke-width:0px;}</style></defs><polyline class="b" points="12.7 11.18 9.61 14.53 6.64 11.31"/><line class="b" x1="9.61" y1="14.53" x2="9.61" y2="8.47"/><path class="c" d="M22.22,11.77l1.02-1.63h.66l-1.35,2.12,1.38,2.15h-.67l-1.05-1.66-1.05,1.66h-.67l1.38-2.15-1.35-2.12h.66l1.03,1.63Z"/><path class="c" d="M25.32,10.14l1.39,3.48,1.39-3.48h.73v4.27h-.56v-1.66l.05-1.79-1.4,3.45h-.43l-1.4-3.45.06,1.79v1.66h-.56v-4.27h.73Z"/><path class="c" d="M30.4,13.94h2.02v.46h-2.59v-4.27h.57v3.81Z"/><path class="b" d="M16.76,11.5c0,3.91-3.17,7.09-7.09,7.09s-7.09-3.17-7.09-7.09,3.17-7.09,7.09-7.09,7.09,3.17,7.09,7.09Z"/></svg>