<?xml version="1.0" encoding="UTF-8"?><svg id="a" xmlns="http://www.w3.org/2000/svg" viewBox="0 0 15 15"><defs><style>.b{fill:none;stroke:#878787;stroke-linecap:round;stroke-linejoin:round;stroke-width:.5px;}</style></defs><line class="b" x1="6.06" y1="7.62" x2="6.06" y2="7.62"/><line class="b" x1="6.06" y1="7.62" x2="6.06" y2="7.62"/><line class="b" x1="7.5" y1="7.62" x2="7.5" y2="7.62"/><line class="b" x1="9.06" y1="7.62" x2="9.06" y2="7.62"/><line class="b" x1="10.49" y1="7.62" x2="10.49" y2="7.62"/><line class="b" x1="4.51" y1="8.94" x2="4.51" y2="8.94"/><line class="b" x1="6.06" y1="8.94" x2="6.06" y2="8.94"/><line class="b" x1="7.5" y1="8.94" x2="7.5" y2="8.94"/><line class="b" x1="9.06" y1="8.94" x2="9.06" y2="8.94"/><line class="b" x1="10.49" y1="8.94" x2="10.49" y2="8.94"/><line class="b" x1="4.51" y1="10.26" x2="4.51" y2="10.26"/><line class="b" x1="6.06" y1="10.26" x2="6.06" y2="10.26"/><line class="b" x1="7.5" y1="10.26" x2="7.5" y2="10.26"/><line class="b" x1="9.06" y1="10.26" x2="9.06" y2="10.26"/><rect class="b" x="2.83" y="4.21" width="9.34" height="7.54"/><line class="b" x1="2.83" y1="6.24" x2="12.17" y2="6.24"/><line class="b" x1="10.49" y1="5.04" x2="10.49" y2="3.25"/><line class="b" x1="4.51" y1="5.04" x2="4.51" y2="3.25"/></svg>